<svg xmlns="http://www.w3.org/2000/svg"  viewBox="0 0 64 64" width="64px" height="64px"><path d="M 32.291016 1.7421875 C 31.579016 1.7421875 30.91025 2.0194375 30.40625 2.5234375 L 24.042969 8.8867188 C 23.651969 9.2777188 23.651969 9.9097812 24.042969 10.300781 L 26.507812 12.765625 C 26.702813 12.960625 26.958844 13.058594 27.214844 13.058594 C 27.470844 13.058594 27.726875 12.960625 27.921875 12.765625 L 32.248047 8.4375 L 36.033203 12.220703 C 36.419203 12.606703 37.042547 12.612422 37.435547 12.232422 L 39.943359 9.8144531 C 40.135359 9.6294531 40.247 9.3754219 40.25 9.1074219 C 40.253 8.8404219 40.150891 8.5835781 39.962891 8.3925781 L 34.185547 2.53125 C 33.682547 2.02325 33.012828 1.7441875 32.298828 1.7421875 L 32.291016 1.7421875 z M 32.291016 3.7421875 L 32.292969 3.7421875 C 32.471969 3.7431875 32.639672 3.8115 32.763672 3.9375 L 37.826172 9.0761719 L 36.751953 10.111328 L 32.955078 6.3164062 C 32.564078 5.9254062 31.932016 5.9254063 31.541016 6.3164062 L 27.214844 10.644531 L 26.162109 9.59375 L 31.820312 3.9375 C 31.946313 3.8115 32.113016 3.7421875 32.291016 3.7421875 z M 50.855469 9 C 50.599719 9 50.343938 9.0974687 50.148438 9.2929688 L 45.794922 13.646484 L 42.441406 10.292969 C 42.050406 9.9019687 41.418344 9.9019688 41.027344 10.292969 L 38.199219 13.121094 C 37.808219 13.512094 37.808219 14.144156 38.199219 14.535156 L 40.162109 16.5 L 34.955078 21.707031 C 34.790078 21.872031 34.689969 22.089313 34.667969 22.320312 L 34.527344 23.798828 L 32 26.398438 L 29.650391 24.048828 L 29.513672 22.578125 C 29.491672 22.347125 29.389609 22.131797 29.224609 21.966797 L 24.017578 16.759766 L 25.982422 14.794922 C 26.170422 14.606922 26.275391 14.353891 26.275391 14.087891 C 26.275391 13.821891 26.170422 13.567859 25.982422 13.380859 L 23.152344 10.552734 C 22.761344 10.161734 22.129281 10.161734 21.738281 10.552734 L 18.384766 13.90625 L 14.03125 9.5527344 C 13.65625 9.1777344 12.992188 9.1777344 12.617188 9.5527344 L 9.6777344 12.490234 C 9.2867344 12.881234 9.2867344 13.513297 9.6777344 13.904297 L 14.03125 18.259766 L 10.789062 21.501953 C 10.398062 21.892953 10.398062 22.525016 10.789062 22.916016 L 13.617188 25.744141 C 14.008188 26.135141 14.64025 26.135141 15.03125 25.744141 L 16.945312 23.830078 L 17.339844 24.224609 L 11.585938 29.978516 L 3 29.978516 C 2.448 29.978516 2 30.425516 2 30.978516 L 2 36.978516 C 2 37.531516 2.448 37.978516 3 37.978516 L 11.585938 37.978516 L 16.021484 42.416016 C 15.975484 42.478016 15.922578 42.536422 15.892578 42.607422 L 13.876953 47.308594 C 13.552953 48.064594 13.720734 48.930719 14.302734 49.511719 C 14.686734 49.896719 15.194891 50.097656 15.712891 50.097656 C 15.978891 50.097656 16.246906 50.045547 16.503906 49.935547 L 21.205078 47.919922 C 21.322078 47.869922 21.429531 47.797031 21.519531 47.707031 L 32 37.226562 L 42.480469 47.707031 C 42.570469 47.797031 42.677922 47.869922 42.794922 47.919922 L 47.496094 49.935547 C 47.752094 50.045547 48.020109 50.097656 48.287109 50.097656 C 48.805109 50.097656 49.313266 49.896719 49.697266 49.511719 C 50.279266 48.930719 50.446094 48.064594 50.121094 47.308594 L 48.107422 42.607422 C 48.077422 42.536422 48.024516 42.478016 47.978516 42.416016 L 52.414062 37.978516 L 61 37.978516 C 61.552 37.978516 62 37.531516 62 36.978516 L 62 30.978516 C 62 30.425516 61.552 29.978516 61 29.978516 L 52.414062 29.978516 L 46.619141 24.185547 L 47.234375 23.572266 L 49.148438 25.486328 C 49.539437 25.877328 50.1715 25.877328 50.5625 25.486328 L 53.390625 22.658203 C 53.781625 22.267203 53.781625 21.635141 53.390625 21.244141 L 50.148438 18 L 54.501953 13.646484 C 54.689953 13.458484 54.794922 13.205453 54.794922 12.939453 C 54.794922 12.673453 54.689953 12.419422 54.501953 12.232422 L 51.5625 9.2929688 C 51.367 9.0974688 51.111219 9 50.855469 9 z M 32.273438 10.28125 C 32.011313 10.2905 31.749687 10.394031 31.554688 10.582031 L 26.136719 15.822266 C 25.942719 16.010266 25.833031 16.267109 25.832031 16.537109 C 25.831031 16.807109 25.938859 17.065859 26.130859 17.255859 L 28.392578 19.476562 C 28.586578 19.666563 28.84075 19.761719 29.09375 19.761719 C 29.34675 19.761719 29.599922 19.665609 29.794922 19.474609 L 31.25 18.044922 L 31.25 21.361328 C 31.249 21.914328 31.696047 22.361328 32.248047 22.361328 C 32.800047 22.361328 33.248047 21.914328 33.248047 21.361328 L 33.248047 18.044922 L 34.705078 19.474609 C 35.094078 19.857609 35.717469 19.857563 36.105469 19.476562 L 38.367188 17.255859 C 38.558188 17.067859 38.666016 16.810016 38.666016 16.541016 C 38.666016 16.272016 38.558188 16.015172 38.367188 15.826172 L 32.990234 10.546875 C 32.796734 10.356875 32.535562 10.272 32.273438 10.28125 z M 50.855469 11.414062 L 52.380859 12.939453 L 48.027344 17.292969 C 47.636344 17.683969 47.636344 18.316031 48.027344 18.707031 L 51.269531 21.949219 L 49.855469 23.363281 L 47.941406 21.449219 C 47.550406 21.058219 46.918344 21.058219 46.527344 21.449219 L 40.867188 27.109375 L 39.398438 27.246094 C 39.162438 27.268094 38.939438 27.373922 38.773438 27.544922 L 35.998047 30.396484 L 32.316406 26.714844 L 33.429688 27.796875 L 36.207031 24.939453 C 36.366031 24.775453 36.464328 24.562938 36.486328 24.335938 L 36.625 22.865234 L 42.283203 17.207031 C 42.674203 16.816031 42.674203 16.183969 42.283203 15.792969 L 40.320312 13.828125 L 41.734375 12.414062 L 45.087891 15.767578 C 45.478891 16.158578 46.110953 16.158578 46.501953 15.767578 L 50.855469 11.414062 z M 13.324219 11.673828 L 17.679688 16.027344 C 18.070687 16.418344 18.70275 16.418344 19.09375 16.027344 L 22.447266 12.673828 L 23.861328 14.087891 L 21.896484 16.052734 C 21.505484 16.443734 21.505484 17.075797 21.896484 17.466797 L 27.556641 23.125 L 27.693359 24.595703 C 27.715359 24.826703 27.817422 25.042031 27.982422 25.207031 L 43.076172 40.302734 C 43.124172 40.437734 43.195688 40.567781 43.304688 40.675781 L 45.804688 43.175781 C 45.909687 43.280781 46.038781 43.350391 46.175781 43.400391 L 46.345703 43.572266 L 48.283203 48.097656 L 43.759766 46.158203 L 25.396484 27.794922 C 25.231484 27.629922 25.01325 27.527859 24.78125 27.505859 L 23.3125 27.367188 L 17.652344 21.708984 C 17.261344 21.317984 16.629281 21.317984 16.238281 21.708984 L 14.324219 23.623047 L 12.910156 22.208984 L 16.152344 18.966797 C 16.543344 18.575797 16.543344 17.943734 16.152344 17.552734 L 11.800781 13.197266 L 13.324219 11.673828 z M 32.285156 12.658203 L 36.238281 16.542969 L 35.40625 17.361328 L 32.949219 14.949219 C 32.560219 14.566219 31.936828 14.566219 31.548828 14.949219 L 29.09375 17.361328 L 28.263672 16.548828 L 32.285156 12.658203 z M 45.339844 25.732422 L 51.294922 31.6875 C 51.482922 31.8755 51.736953 31.980469 52.001953 31.980469 L 60.001953 31.980469 L 60.001953 35.978516 L 60 35.978516 L 52 35.978516 C 51.735 35.978516 51.479969 36.083484 51.292969 36.271484 L 46.583984 40.982422 L 45.498047 39.896484 L 50.691406 34.703125 C 50.741406 34.653125 50.784266 34.599063 50.822266 34.539062 L 50.833984 34.521484 C 50.851984 34.493484 50.859 34.461641 50.875 34.431641 C 50.889 34.402641 50.902062 34.37375 50.914062 34.34375 C 51.033062 34.03475 50.999594 33.676437 50.808594 33.398438 C 50.773594 33.347437 50.734406 33.300813 50.691406 33.257812 L 44.253906 26.818359 L 45.339844 25.732422 z M 18.585938 25.808594 L 19.671875 26.894531 L 13.308594 33.255859 C 13.265594 33.298859 13.225406 33.345484 13.191406 33.396484 L 13.181641 33.412109 C 13.157641 33.447109 13.145953 33.488391 13.126953 33.525391 C 13.112953 33.553391 13.098891 33.578422 13.087891 33.607422 C 12.969891 33.909422 12.995781 34.262063 13.175781 34.539062 C 13.213781 34.599063 13.259594 34.653125 13.308594 34.703125 L 18.501953 39.896484 L 17.414062 40.982422 L 12.705078 36.271484 C 12.520078 36.083484 12.265 35.978516 12 35.978516 L 4 35.978516 L 4 31.978516 L 12 31.978516 C 12.265 31.978516 12.520031 31.873547 12.707031 31.685547 L 18.585938 25.808594 z M 42.707031 28.099609 L 47.597656 32.990234 L 43.003906 32.978516 L 43.001953 32.978516 C 42.450953 32.978516 42.002953 33.424562 42.001953 33.976562 C 42.000953 34.528562 42.445047 34.977516 42.998047 34.978516 L 47.576172 34.990234 L 44.083984 38.482422 L 37.414062 31.8125 L 39.951172 29.203125 L 41.414062 29.068359 C 41.646062 29.046359 41.862344 28.944297 42.027344 28.779297 L 42.707031 28.099609 z M 21.253906 28.138672 L 22.154297 29.037109 C 22.319297 29.202109 22.535578 29.304172 22.767578 29.326172 L 24.238281 29.462891 L 26.587891 31.8125 L 19.917969 38.480469 L 16.404297 34.96875 L 20.998047 34.978516 L 21 34.978516 C 21.551 34.978516 21.999 34.532469 22 33.980469 C 22.001 33.428469 21.554953 32.979516 21.001953 32.978516 L 16.423828 32.96875 L 21.253906 28.138672 z M 28 33.226562 L 30.585938 35.8125 L 20.240234 46.15625 L 15.716797 48.095703 L 17.654297 43.570312 L 17.859375 43.365234 C 17.976375 43.315234 18.084781 43.245297 18.175781 43.154297 L 20.675781 40.654297 C 20.767781 40.562297 20.835766 40.454797 20.884766 40.341797 L 28 33.226562 z M 3 40 C 2.448 40 2 40.447 2 41 L 2 43 C 2 43.553 2.448 44 3 44 C 3.552 44 4 43.553 4 43 L 4 41 C 4 40.447 3.552 40 3 40 z M 8 40 C 7.448 40 7 40.447 7 41 L 7 43 C 7 43.553 7.448 44 8 44 C 8.552 44 9 43.553 9 43 L 9 41 C 9 40.447 8.552 40 8 40 z M 56 40 C 55.448 40 55 40.447 55 41 L 55 43 C 55 43.553 55.448 44 56 44 C 56.552 44 57 43.553 57 43 L 57 41 C 57 40.447 56.552 40 56 40 z M 61 40 C 60.448 40 60 40.447 60 41 L 60 43 C 60 43.553 60.448 44 61 44 C 61.552 44 62 43.553 62 43 L 62 41 C 62 40.447 61.552 40 61 40 z M 32.001953 40.740234 C 31.449953 40.740234 31.001953 41.187234 31.001953 41.740234 L 31.001953 45.058594 L 29.544922 43.628906 C 29.155922 43.245906 28.532531 43.245953 28.144531 43.626953 L 25.882812 45.847656 C 25.691813 46.035656 25.583984 46.2935 25.583984 46.5625 C 25.583984 46.8315 25.691812 47.086391 25.882812 47.275391 L 31.259766 52.556641 C 31.443766 52.737641 31.689453 52.822266 31.939453 52.822266 C 32.213453 52.822266 32.491313 52.719484 32.695312 52.521484 L 38.113281 47.28125 C 38.307281 47.09325 38.416969 46.836406 38.417969 46.566406 C 38.418969 46.296406 38.311141 46.037656 38.119141 45.847656 L 35.857422 43.626953 C 35.468422 43.245953 34.845031 43.245906 34.457031 43.628906 L 33.001953 45.058594 L 33.001953 41.740234 C 33.001953 41.187234 32.553953 40.740234 32.001953 40.740234 z M 28.84375 45.742188 L 31.300781 48.154297 C 31.689781 48.537297 32.313172 48.537297 32.701172 48.154297 L 35.15625 45.742188 L 35.986328 46.554688 L 31.964844 50.445312 L 28.011719 46.560547 L 28.84375 45.742188 z M 39.535156 47.544922 C 39.279406 47.544922 39.023625 47.644344 38.828125 47.839844 L 32.001953 54.666016 L 25.216797 47.884766 C 24.830797 47.497766 24.206453 47.492094 23.814453 47.871094 L 21.306641 50.289062 C 21.113641 50.475062 21.003 50.728094 21 50.996094 C 20.997 51.264094 21.100062 51.521891 21.289062 51.712891 L 30.064453 60.572266 C 30.567453 61.080266 31.237172 61.359328 31.951172 61.361328 L 31.958984 61.361328 C 32.670984 61.361328 33.33975 61.084078 33.84375 60.580078 L 42.707031 51.71875 C 43.098031 51.32775 43.098031 50.695687 42.707031 50.304688 L 40.242188 47.839844 C 40.046688 47.644344 39.790906 47.544922 39.535156 47.544922 z M 39.535156 49.960938 L 40.585938 51.011719 L 32.429688 59.167969 C 32.303688 59.293969 32.136984 59.361328 31.958984 59.361328 L 31.957031 59.361328 C 31.778031 59.360328 31.610375 59.292062 31.484375 59.164062 L 23.423828 51.025391 L 24.496094 49.992188 L 31.294922 56.787109 C 31.685922 57.178109 32.316031 57.178109 32.707031 56.787109 L 39.535156 49.960938 z"/></svg>